<?xml version="1.0" encoding="UTF-8"?>
<svg width="49px" height="46px" viewBox="0 0 49 46" version="1.1" xmlns="http://www.w3.org/2000/svg" xmlns:xlink="http://www.w3.org/1999/xlink">
    <!-- Generator: Sketch 52.2 (67145) - http://www.bohemiancoding.com/sketch -->
    <title>Group 6</title>
    <desc>Created with Sketch.</desc>
    <defs>
        <polygon id="path-1" points="0.00922005469 0.0312421918 30.9920177 0.0312421918 30.9920177 45.9673043 0.00922005469 45.9673043"></polygon>
    </defs>
    <g id="Page-2" stroke="none" stroke-width="1" fill="none" fill-rule="evenodd">
        <g id="WHO" transform="translate(-35.000000, -58.000000)">
            <g id="Group-6" transform="translate(35.000000, 58.000000)">
                <g id="Group-3" transform="translate(18.000000, 0.000000)">
                    <mask id="mask-2" fill="white">
                        <use xlink:href="#path-1"></use>
                    </mask>
                    <g id="Clip-2"></g>
                    <path d="M11.6377252,33.2554668 C10.3665563,33.288486 9.30913529,32.290307 9.27589687,31.0259582 C9.25173883,30.105202 9.77764074,29.2976605 10.5560617,28.913697 C10.537183,28.7911143 10.4614146,28.6598778 10.3279541,28.5201134 C10.2016312,28.3878687 10.0043546,28.2801573 9.73629332,28.1985335 C9.46802084,28.1159436 8.96788188,28.0014267 8.23714346,27.8537646 L8.21872929,27.3047472 C9.25414619,27.3741463 10.0844732,27.5722614 10.7607293,27.7727289 C11.4359296,27.9729025 12.4347715,28.4520586 13.1304554,29.2066687 C13.1701135,29.249728 13.2067729,29.2906869 13.2420808,29.3307216 C13.3946734,29.4822906 13.488138,29.6705335 13.593386,29.8599947 C13.645841,29.9482979 13.6835563,30.0281993 13.7103328,30.1028075 C13.8120753,30.3514595 13.8717102,30.6219984 13.8791435,30.9062321 C13.9123819,32.170665 12.9088519,33.2224057 11.6377252,33.2554668 M30.7476203,45.5953974 C26.9930726,43.6240349 24.615871,40.4375582 22.9381121,36.6887472 C18.3561094,26.4506175 13.8200576,16.1921134 9.26588733,5.94167507 C8.41152902,4.01874904 7.55746635,2.095739 6.64039005,0.0312421918 C6.44142411,0.376431233 6.30741458,0.567110685 6.21471022,0.775938082 C4.17449632,5.37224128 2.12532875,9.96476365 0.126420027,14.5788367 C-0.0456004087,14.975907 -0.0211044959,15.5789061 0.153112125,15.9835801 C1.64740504,19.4545426 3.21189142,22.8954267 4.72620341,26.3579874 C6.09712984,29.4925828 7.55928243,32.5960075 8.75033283,35.7981116 C10.3348805,40.0582157 8.51618569,43.8575216 4.30039687,45.5726705 C4.13956853,45.6380787 3.96763256,45.6764751 3.80089142,45.7274742 C3.87919387,45.8074175 3.95753856,45.8873189 4.03584101,45.9673043 L30.9920304,45.9673043 C30.8673969,45.7720879 30.8310753,45.639255 30.7476203,45.5953974" id="Fill-1" fill="#F7CAC9" mask="url(#mask-2)"></path>
                </g>
                <path d="M6.23219536,46 C8.14206369,45.9601804 9.97901305,45.1952966 11.3005236,43.819184 C11.9318485,43.1617264 12.497513,42.3189815 12.8649028,41.2432732 C12.8649028,41.2432732 13.6557067,39.4401439 15.3539098,34.4672418 C15.3539098,34.4672418 16.8114551,30.593369 17.7094265,29.3291069 C17.7465952,29.2767584 17.786976,29.2275111 17.8311111,29.1807861 C17.930311,29.0757583 18.0403986,28.980737 18.1589963,28.8977485 C19.6827861,27.8316747 20.9888202,27.6453951 20.9888202,27.6453951 L21,27.1205454 L15.7218836,27.0085708 L15.6171773,27.004808 C13.5806185,26.9319915 11.5877777,27.6882332 10.1705714,29.1397674 C9.54454439,29.7809746 8.98117432,30.6017216 8.60414813,31.6488986 C8.60414813,31.6488986 7.78355926,33.4388788 6.00325978,38.3834565 C6.00325978,38.3834565 4.429578,42.3650862 3.51663065,43.5438375 C3.49256071,43.5749323 3.46653013,43.6041251 3.43937323,43.6325736 L3.41209119,43.6611461 C3.37896895,43.6958384 3.34338548,43.7288353 3.30592482,43.7589378 C1.59299614,45.1344301 0.0111797985,45.3610256 0.0111797985,45.3610256 L0,45.8858753" id="Fill-4" fill="#F7CAC9"></path>
            </g>
        </g>
    </g>
</svg>