<?xml version="1.0" encoding="UTF-8"?>
<svg width="20px" height="83px" viewBox="0 0 20 83" version="1.1" xmlns="http://www.w3.org/2000/svg" xmlns:xlink="http://www.w3.org/1999/xlink">
    <!-- Generator: Sketch 52.2 (67145) - http://www.bohemiancoding.com/sketch -->
    <title>Pestaña Menú</title>
    <desc>Created with Sketch.</desc>
    <defs>
        <polygon id="path-1" points="9.70760235e-06 0 82.9480643 0 82.9480643 19.9563347 9.70760235e-06 19.9563347"></polygon>
    </defs>
    <g id="Page-2" stroke="none" stroke-width="1" fill="none" fill-rule="evenodd">
        <g id="WHO" transform="translate(-50.000000, -490.000000)">
            <g id="Pestaña-Menu/WHO" transform="translate(60.000000, 531.500000) rotate(-270.000000) translate(-60.000000, -531.500000) translate(18.500000, 521.500000)">
                <g id="Group-3">
                    <mask id="mask-2" fill="white">
                        <use xlink:href="#path-1"></use>
                    </mask>
                    <g id="Clip-2"></g>
                    <path d="M81.9701302,17.5199902 L73.19106,8.88291707 L73.0190413,8.70906341 C72.6633547,8.34974634 72.2926214,8.00847805 71.9097536,7.68379512 C71.7923887,7.56730732 71.6732764,7.45316098 71.5529021,7.34047805 L70.409929,6.2191122 L70.2379103,6.0453561 C69.8821267,5.68594146 69.5113933,5.34467317 69.1286226,5.01999024 C65.7934787,1.71052683 61.2431372,-0.127326829 56.5584425,0.1076 C54.4663571,0.212478049 52.1926425,0.727014634 49.8725255,1.92916098 C49.8725255,1.92916098 45.610791,3.70164878 34.6655664,9.37325854 C31.071715,11.1800878 29.5352927,11.8490634 29.5352927,11.8490634 C27.1859559,13.1158927 24.8731196,13.6645756 22.7456986,13.7890634 C18.6489933,14.0285756 14.6410156,12.678722 11.4483793,10.1388195 L4.8824483,3.73520976 C4.82449392,3.69979512 4.77993602,3.67150244 4.74265883,3.64750244 L2.10131731,1.07140488 C2.03016058,1.02789268 1.97511848,0.992770732 1.93502608,0.966721951 L1.10279333,0.155112195 C0.943879883,0.0579414634 0.860685731,-9.75609756e-06 0.860685731,-9.75609756e-06 L9.70760235e-06,0.88662439 L10.4095688,11.0388195 C10.5035384,11.1236 10.5985758,11.206722 10.6941957,11.2892585 L12.373708,12.9272098 C12.4473887,12.9935512 12.5221372,13.0584293 12.5967887,13.1234049 L13.1906998,13.7026244 C13.2847664,13.7873073 13.3798039,13.8705268 13.4753267,13.9529659 L15.1548389,15.5910146 C18.4648401,18.5732585 22.8136518,20.1894537 27.2664319,19.9290634 C29.3937559,19.8046732 31.7065922,19.2559902 34.0560261,17.989161 C34.0560261,17.989161 35.8293138,17.2169659 40.0208623,15.086722 C50.3474214,9.7520878 54.3932588,8.06925854 54.3932588,8.06925854 C56.7132787,6.8671122 58.9869933,6.35257561 61.0791758,6.24769756 C65.1817056,6.04203902 69.1811407,7.42613659 72.3518378,9.99569756 L77.1132226,14.6666244 C77.1551594,14.692478 77.1910775,14.7150146 77.2217536,14.7346244 L79.0772647,16.5548195 C79.0951914,16.5658114 79.3675543,16.824348 79.8943536,17.3304293 C79.9363875,17.3561854 79.9722085,17.3788195 80.0028846,17.3984293 L81.8584927,19.2186244 C82.0085723,19.3110146 82.087398,19.3659415 82.087398,19.3659415 L82.948074,18.4793073 L81.9701302,17.5199902 Z" id="Fill-1" fill="rgb(247, 202, 201,0.5)" mask="url(#mask-2)"></path>
                </g>
            </g>
        </g>
    </g>
</svg>