<?xml version="1.0" encoding="UTF-8"?>
<svg width="16px" height="313px" viewBox="0 0 16 313" version="1.1" xmlns="http://www.w3.org/2000/svg" xmlns:xlink="http://www.w3.org/1999/xlink">
    <!-- Generator: Sketch 52.2 (67145) - http://www.bohemiancoding.com/sketch -->
    <title>Ana Solsona/WHO</title>
    <desc>Created with Sketch.</desc>
    <defs>
        <polygon id="path-1" points="0 16 313 16 313 0 0 0"></polygon>
    </defs>
    <g id="Page-2" stroke="none" stroke-width="1" fill="none" fill-rule="evenodd">
        <g id="WHO" transform="translate(-52.000000, -149.000000)">
            <g id="Ana-Solsona/WHO" transform="translate(52.000000, 149.000000)">
                <g id="Group-26" transform="translate(8.000000, 156.500000) rotate(-270.000000) translate(-8.000000, -156.500000) translate(-148.500000, 148.500000)">
                    <path d="M38.8854582,5.17348578 C39.6289841,5.9566758 40,7.08078995 40,8.54790702 L40,15 L39.5946215,15 L39.5946215,8.54790702 C39.5946215,7.20811679 39.2674303,6.18274591 38.6115538,5.46971558 C37.9561753,4.75824435 37.0273904,4.40120949 35.8247012,4.40120949 C34.4596614,4.40120949 33.3819721,4.82788434 32.5911355,5.68123405 C31.8007968,6.53510347 31.4053785,7.65921761 31.4053785,9.05513559 L31.4053785,15 L31,15 L31,4.06288387 L31.4053785,4.06288387 L31.4053785,6.98256638 C31.7295817,6.05178116 32.2704183,5.32212038 33.0273904,4.79306435 C33.7838645,4.26452802 34.7096614,4 35.8042829,4 C37.1150398,4 38.1419323,4.39133516 38.8854582,5.17348578" id="Fill-1" fill="#F7CAC9"></path>
                    <path d="M38.8854582,5.17348578 C39.6289841,5.9566758 40,7.08078995 40,8.54790702 L40,15 L39.5946215,15 L39.5946215,8.54790702 C39.5946215,7.20811679 39.2674303,6.18274591 38.6115538,5.46971558 C37.9561753,4.75824435 37.0273904,4.40120949 35.8247012,4.40120949 C34.4596614,4.40120949 33.3819721,4.82788434 32.5911355,5.68123405 C31.8007968,6.53510347 31.4053785,7.65921761 31.4053785,9.05513559 L31.4053785,15 L31,15 L31,4.06288387 L31.4053785,4.06288387 L31.4053785,6.98256638 C31.7295817,6.05178116 32.2704183,5.32212038 33.0273904,4.79306435 C33.7838645,4.26452802 34.7096614,4 35.8042829,4 C37.1150398,4 38.1419323,4.39133516 38.8854582,5.17348578 Z" id="Stroke-3" stroke="#F7CAC9"></path>
                    <path d="M71.6000246,11.823336 L71.6000246,9.42637043 L67.6597261,9.42637043 C66.5398931,9.42637043 65.7163565,9.65061769 65.1896075,10.0991122 C64.6628585,10.5481234 64.3994841,11.1583447 64.3994841,11.9292592 C64.3994841,12.7570107 64.685953,13.4085678 65.2593821,13.8849641 C65.8323199,14.3613603 66.6327621,14.6000752 67.6597261,14.6000752 C69.5800012,14.6000752 70.8929427,13.6751844 71.6000246,11.823336 M71.0496898,4.97811076 C71.6825748,5.6296679 72,6.57315985 72,7.8070365 L72,14.9364461 L71.6000246,14.9364461 L71.6000246,12.6237024 C71.2663841,13.3667152 70.7627296,13.9474846 70.0895522,14.3685941 C69.4163749,14.7886702 68.6061053,15 67.6597261,15 C66.5128678,15 65.6161169,14.7230495 64.9694736,14.1686317 C64.3223389,13.6152473 64,12.8758514 64,11.9494105 C64,11.0808399 64.2894171,10.3760628 64.8692341,9.83611255 C65.4495424,9.29719573 66.3865856,9.02644558 67.6793809,9.02644558 L71.6000246,9.02644558 L71.6000246,7.82822115 C71.6000246,6.69200056 71.3228917,5.83686411 70.7701001,5.26177838 C70.2163258,4.68669266 69.3996683,4.39940815 68.3196364,4.39940815 C67.5727535,4.39940815 66.8759904,4.53633332 66.2298385,4.81018366 C65.5827038,5.08300061 65.0259812,5.45140683 64.5596708,5.91436892 L64.2795897,5.61985063 C64.7724341,5.11555263 65.3723973,4.71924468 66.0794791,4.43144347 C66.786561,4.14415896 67.5260733,4 68.2994902,4 C69.4999079,4 70.4163135,4.32603692 71.0496898,4.97811076" id="Fill-5" fill="#F7CAC9"></path>
                    <path d="M71.6000246,11.823336 L71.6000246,9.42637043 L67.6597261,9.42637043 C66.5398931,9.42637043 65.7163565,9.65061769 65.1896075,10.0991122 C64.6628585,10.5481234 64.3994841,11.1583447 64.3994841,11.9292592 C64.3994841,12.7570107 64.685953,13.4085678 65.2593821,13.8849641 C65.8323199,14.3613603 66.6327621,14.6000752 67.6597261,14.6000752 C69.5800012,14.6000752 70.8929427,13.6751844 71.6000246,11.823336 Z M71.0496898,4.97811076 C71.6825748,5.6296679 72,6.57315985 72,7.8070365 L72,14.9364461 L71.6000246,14.9364461 L71.6000246,12.6237024 C71.2663841,13.3667152 70.7627296,13.9474846 70.0895522,14.3685941 C69.4163749,14.7886702 68.6061053,15 67.6597261,15 C66.5128678,15 65.6161169,14.7230495 64.9694736,14.1686317 C64.3223389,13.6152473 64,12.8758514 64,11.9494105 C64,11.0808399 64.2894171,10.3760628 64.8692341,9.83611255 C65.4495424,9.29719573 66.3865856,9.02644558 67.6793809,9.02644558 L71.6000246,9.02644558 L71.6000246,7.82822115 C71.6000246,6.69200056 71.3228917,5.83686411 70.7701001,5.26177838 C70.2163258,4.68669266 69.3996683,4.39940815 68.3196364,4.39940815 C67.5727535,4.39940815 66.8759904,4.53633332 66.2298385,4.81018366 C65.5827038,5.08300061 65.0259812,5.45140683 64.5596708,5.91436892 L64.2795897,5.61985063 C64.7724341,5.11555263 65.3723973,4.71924468 66.0794791,4.43144347 C66.786561,4.14415896 67.5260733,4 68.2994902,4 C69.4999079,4 70.4163135,4.32603692 71.0496898,4.97811076 Z" id="Stroke-7" stroke="#F7CAC9"></path>
                    <path d="M161.085939,13.9474846 C161.860079,13.5134577 162.466256,12.9068533 162.905007,12.1281883 C163.342681,11.3510733 163.562326,10.4706186 163.562326,9.48889098 C163.562326,8.50819672 163.342681,7.62774203 162.905007,6.85011039 C162.466256,6.07144535 161.860079,5.46897459 161.085939,5.04063131 C160.3118,4.61332143 159.450448,4.39889145 158.500269,4.39889145 C157.551167,4.39889145 156.688739,4.61332143 155.914599,5.04063131 C155.139921,5.46897459 154.534821,6.07144535 154.096608,6.85011039 C153.658396,7.62774203 153.438213,8.50819672 153.438213,9.48889098 C153.438213,10.4706186 153.658396,11.3510733 154.096608,12.1281883 C154.534821,12.9068533 155.139921,13.5134577 155.914599,13.9474846 C156.688739,14.3830617 157.551167,14.6000752 158.500269,14.6000752 C159.450448,14.6000752 160.3118,14.3830617 161.085939,13.9474846 M155.684187,14.2947062 C154.844369,13.8255437 154.18705,13.169853 153.71223,12.3286674 C153.23741,11.4869651 153,10.5408897 153,9.48889098 C153,8.43740899 153.23741,7.49443375 153.71223,6.65996524 C154.18705,5.82601343 154.844369,5.17445629 155.684187,4.70426042 C156.523467,4.23509794 157.463417,4 158.500269,4 C159.53766,4 160.475456,4.23509794 161.316351,4.70426042 C162.155631,5.17445629 162.81295,5.82601343 163.28777,6.65996524 C163.763128,7.49443375 164,8.43740899 164,9.48889098 C164,10.5408897 163.763128,11.4869651 163.28777,12.3286674 C162.81295,13.169853 162.155631,13.8255437 161.316351,14.2947062 C160.475456,14.7654188 159.53766,15 158.500269,15 C157.463417,15 156.523467,14.7654188 155.684187,14.2947062" id="Fill-9" fill="#F7CAC9"></path>
                    <path d="M161.085939,13.9474846 C161.860079,13.5134577 162.466256,12.9068533 162.905007,12.1281883 C163.342681,11.3510733 163.562326,10.4706186 163.562326,9.48889098 C163.562326,8.50819672 163.342681,7.62774203 162.905007,6.85011039 C162.466256,6.07144535 161.860079,5.46897459 161.085939,5.04063131 C160.3118,4.61332143 159.450448,4.39889145 158.500269,4.39889145 C157.551167,4.39889145 156.688739,4.61332143 155.914599,5.04063131 C155.139921,5.46897459 154.534821,6.07144535 154.096608,6.85011039 C153.658396,7.62774203 153.438213,8.50819672 153.438213,9.48889098 C153.438213,10.4706186 153.658396,11.3510733 154.096608,12.1281883 C154.534821,12.9068533 155.139921,13.5134577 155.914599,13.9474846 C156.688739,14.3830617 157.551167,14.6000752 158.500269,14.6000752 C159.450448,14.6000752 160.3118,14.3830617 161.085939,13.9474846 Z M155.684187,14.2947062 C154.844369,13.8255437 154.18705,13.169853 153.71223,12.3286674 C153.23741,11.4869651 153,10.5408897 153,9.48889098 C153,8.43740899 153.23741,7.49443375 153.71223,6.65996524 C154.18705,5.82601343 154.844369,5.17445629 155.684187,4.70426042 C156.523467,4.23509794 157.463417,4 158.500269,4 C159.53766,4 160.475456,4.23509794 161.316351,4.70426042 C162.155631,5.17445629 162.81295,5.82601343 163.28777,6.65996524 C163.763128,7.49443375 164,8.43740899 164,9.48889098 C164,10.5408897 163.763128,11.4869651 163.28777,12.3286674 C162.81295,13.169853 162.155631,13.8255437 161.316351,14.2947062 C160.475456,14.7654188 159.53766,15 158.500269,15 C157.463417,15 156.523467,14.7654188 155.684187,14.2947062 Z" id="Stroke-11" stroke="#F7CAC9"></path>
                    <mask id="mask-2" fill="white">
                        <use xlink:href="#path-1"></use>
                    </mask>
                    <g id="Clip-14"></g>
                    <polygon id="Fill-13" fill="#F7CAC9" mask="url(#mask-2)" points="185 15 185.813 15 185.813 0 185 0"></polygon>
                    <polygon id="Stroke-15" stroke="#F7CAC9" mask="url(#mask-2)" points="185 15 185.813 15 185.813 0 185 0"></polygon>
                    <path d="M209.725901,14.5788905 C208.980671,14.2988398 208.406036,13.9412842 208,13.5067406 L208.243422,13.169853 C208.649458,13.5775283 209.194663,13.9164827 209.87804,14.190333 C210.561417,14.46315 211.302656,14.6000752 212.10126,14.6000752 C213.291932,14.6000752 214.171842,14.3871953 214.740491,13.958852 C215.30964,13.5315421 215.593964,12.9383719 215.593964,12.1814082 C215.593964,11.6347409 215.440828,11.2038142 215.13705,10.8870778 C214.831775,10.5724083 214.459658,10.3409272 214.019703,10.1941848 C213.580247,10.0469256 212.974685,9.8960496 212.202519,9.74259007 C211.377478,9.58758044 210.710562,9.42327023 210.202768,9.24759265 C209.695473,9.07243177 209.268986,8.79186434 208.924305,8.40640706 C208.578626,8.02094979 208.406036,7.48513317 208.406036,6.79740711 C208.406036,6.01202499 208.720788,5.35013387 209.349794,4.81018366 C209.979798,4.27023345 210.903105,4 212.121212,4 C212.771667,4 213.414141,4.10178966 214.050131,4.30536897 C214.68612,4.50894828 215.201397,4.77866504 215.593964,5.11555263 L215.350044,5.45140683 C214.943509,5.11555263 214.456167,4.85616985 213.888016,4.67325849 C213.319367,4.49138053 212.730764,4.39940815 212.121212,4.39940815 C211.024816,4.39940815 210.202768,4.62055522 209.65457,5.06233266 C209.106372,5.50359341 208.832523,6.08229602 208.832523,6.79740711 C208.832523,7.37249284 208.987654,7.82460426 209.299414,8.15374137 C209.610675,8.48339518 209.996758,8.7252102 210.456665,8.87970313 C210.916573,9.03419606 211.525128,9.18093851 212.283826,9.32044718 C213.109864,9.48889098 213.766305,9.65733477 214.253149,9.82629527 C214.740491,9.99473907 215.154009,10.2644558 215.492206,10.6349288 C215.829904,11.0069519 216,11.5221006 216,12.1814082 C216,13.0375781 215.66729,13.7201372 215.004863,14.2321856 C214.34094,14.7437174 213.373239,15 212.10126,15 C211.261753,15 210.469635,14.8594579 209.725901,14.5788905" id="Fill-16" fill="#F7CAC9" mask="url(#mask-2)"></path>
                    <path d="M209.725901,14.5788905 C208.980671,14.2988398 208.406036,13.9412842 208,13.5067406 L208.243422,13.169853 C208.649458,13.5775283 209.194663,13.9164827 209.87804,14.190333 C210.561417,14.46315 211.302656,14.6000752 212.10126,14.6000752 C213.291932,14.6000752 214.171842,14.3871953 214.740491,13.958852 C215.30964,13.5315421 215.593964,12.9383719 215.593964,12.1814082 C215.593964,11.6347409 215.440828,11.2038142 215.13705,10.8870778 C214.831775,10.5724083 214.459658,10.3409272 214.019703,10.1941848 C213.580247,10.0469256 212.974685,9.8960496 212.202519,9.74259007 C211.377478,9.58758044 210.710562,9.42327023 210.202768,9.24759265 C209.695473,9.07243177 209.268986,8.79186434 208.924305,8.40640706 C208.578626,8.02094979 208.406036,7.48513317 208.406036,6.79740711 C208.406036,6.01202499 208.720788,5.35013387 209.349794,4.81018366 C209.979798,4.27023345 210.903105,4 212.121212,4 C212.771667,4 213.414141,4.10178966 214.050131,4.30536897 C214.68612,4.50894828 215.201397,4.77866504 215.593964,5.11555263 L215.350044,5.45140683 C214.943509,5.11555263 214.456167,4.85616985 213.888016,4.67325849 C213.319367,4.49138053 212.730764,4.39940815 212.121212,4.39940815 C211.024816,4.39940815 210.202768,4.62055522 209.65457,5.06233266 C209.106372,5.50359341 208.832523,6.08229602 208.832523,6.79740711 C208.832523,7.37249284 208.987654,7.82460426 209.299414,8.15374137 C209.610675,8.48339518 209.996758,8.7252102 210.456665,8.87970313 C210.916573,9.03419606 211.525128,9.18093851 212.283826,9.32044718 C213.109864,9.48889098 213.766305,9.65733477 214.253149,9.82629527 C214.740491,9.99473907 215.154009,10.2644558 215.492206,10.6349288 C215.829904,11.0069519 216,11.5221006 216,12.1814082 C216,13.0375781 215.66729,13.7201372 215.004863,14.2321856 C214.34094,14.7437174 213.373239,15 212.10126,15 C211.261753,15 210.469635,14.8594579 209.725901,14.5788905 Z" id="Stroke-17" stroke="#F7CAC9" mask="url(#mask-2)"></path>
                    <path d="M245.085939,13.9474846 C245.860079,13.5134577 246.466256,12.9068533 246.905007,12.1281883 C247.342681,11.3510733 247.562326,10.4706186 247.562326,9.48889098 C247.562326,8.50819672 247.342681,7.62774203 246.905007,6.85011039 C246.466256,6.07144535 245.860079,5.46897459 245.085939,5.04063131 C244.3118,4.61332143 243.449371,4.39889145 242.500269,4.39889145 C241.551167,4.39889145 240.688739,4.61332143 239.914599,5.04063131 C239.139921,5.46897459 238.533744,6.07144535 238.095532,6.85011039 C237.657319,7.62774203 237.438213,8.50819672 237.438213,9.48889098 C237.438213,10.4706186 237.657319,11.3510733 238.095532,12.1281883 C238.533744,12.9068533 239.139921,13.5134577 239.914599,13.9474846 C240.688739,14.3830617 241.551167,14.6000752 242.500269,14.6000752 C243.449371,14.6000752 244.3118,14.3830617 245.085939,13.9474846 M239.684187,14.2947062 C238.844369,13.8255437 238.187589,13.169853 237.71223,12.3286674 C237.23741,11.4869651 237,10.5408897 237,9.48889098 C237,8.43740899 237.23741,7.49443375 237.71223,6.65996524 C238.187589,5.82601343 238.844369,5.17445629 239.684187,4.70426042 C240.524544,4.23509794 241.463417,4 242.500269,4 C243.537121,4 244.475456,4.23509794 245.316351,4.70426042 C246.155631,5.17445629 246.81295,5.82601343 247.28777,6.65996524 C247.763128,7.49443375 248,8.43740899 248,9.48889098 C248,10.5408897 247.763128,11.4869651 247.28777,12.3286674 C246.81295,13.169853 246.155631,13.8255437 245.316351,14.2947062 C244.475456,14.7654188 243.537121,15 242.500269,15 C241.463417,15 240.524544,14.7654188 239.684187,14.2947062" id="Fill-18" fill="#F7CAC9" mask="url(#mask-2)"></path>
                    <path d="M245.085939,13.9474846 C245.860079,13.5134577 246.466256,12.9068533 246.905007,12.1281883 C247.342681,11.3510733 247.562326,10.4706186 247.562326,9.48889098 C247.562326,8.50819672 247.342681,7.62774203 246.905007,6.85011039 C246.466256,6.07144535 245.860079,5.46897459 245.085939,5.04063131 C244.3118,4.61332143 243.449371,4.39889145 242.500269,4.39889145 C241.551167,4.39889145 240.688739,4.61332143 239.914599,5.04063131 C239.139921,5.46897459 238.533744,6.07144535 238.095532,6.85011039 C237.657319,7.62774203 237.438213,8.50819672 237.438213,9.48889098 C237.438213,10.4706186 237.657319,11.3510733 238.095532,12.1281883 C238.533744,12.9068533 239.139921,13.5134577 239.914599,13.9474846 C240.688739,14.3830617 241.551167,14.6000752 242.500269,14.6000752 C243.449371,14.6000752 244.3118,14.3830617 245.085939,13.9474846 Z M239.684187,14.2947062 C238.844369,13.8255437 238.187589,13.169853 237.71223,12.3286674 C237.23741,11.4869651 237,10.5408897 237,9.48889098 C237,8.43740899 237.23741,7.49443375 237.71223,6.65996524 C238.187589,5.82601343 238.844369,5.17445629 239.684187,4.70426042 C240.524544,4.23509794 241.463417,4 242.500269,4 C243.537121,4 244.475456,4.23509794 245.316351,4.70426042 C246.155631,5.17445629 246.81295,5.82601343 247.28777,6.65996524 C247.763128,7.49443375 248,8.43740899 248,9.48889098 C248,10.5408897 247.763128,11.4869651 247.28777,12.3286674 C246.81295,13.169853 246.155631,13.8255437 245.316351,14.2947062 C244.475456,14.7654188 243.537121,15 242.500269,15 C241.463417,15 240.524544,14.7654188 239.684187,14.2947062 Z" id="Stroke-19" stroke="#F7CAC9" mask="url(#mask-2)"></path>
                    <path d="M278.88496,5.17348578 C279.627988,5.9566758 280,7.08078995 280,8.54790702 L280,15 L279.59512,15 L279.59512,8.54790702 C279.59512,7.20811679 279.266932,6.18274591 278.611554,5.46971558 C277.955677,4.75824435 277.02739,4.40120949 275.824203,4.40120949 C274.459163,4.40120949 273.381972,4.82788434 272.590637,5.68123405 C271.799801,6.53510347 271.40488,7.65921761 271.40488,9.05513559 L271.40488,15 L271,15 L271,4.06288387 L271.40488,4.06288387 L271.40488,6.98256638 C271.729582,6.05178116 272.269422,5.32212038 273.026394,4.79306435 C273.783367,4.26452802 274.709163,4 275.803785,4 C277.114542,4 278.141434,4.39133516 278.88496,5.17348578" id="Fill-20" fill="#F7CAC9" mask="url(#mask-2)"></path>
                    <path d="M278.88496,5.17348578 C279.627988,5.9566758 280,7.08078995 280,8.54790702 L280,15 L279.59512,15 L279.59512,8.54790702 C279.59512,7.20811679 279.266932,6.18274591 278.611554,5.46971558 C277.955677,4.75824435 277.02739,4.40120949 275.824203,4.40120949 C274.459163,4.40120949 273.381972,4.82788434 272.590637,5.68123405 C271.799801,6.53510347 271.40488,7.65921761 271.40488,9.05513559 L271.40488,15 L271,15 L271,4.06288387 L271.40488,4.06288387 L271.40488,6.98256638 C271.729582,6.05178116 272.269422,5.32212038 273.026394,4.79306435 C273.783367,4.26452802 274.709163,4 275.803785,4 C277.114542,4 278.141434,4.39133516 278.88496,5.17348578 Z" id="Stroke-21" stroke="#F7CAC9" mask="url(#mask-2)"></path>
                    <path d="M311.600491,11.823336 L311.600491,9.42637043 L307.659951,9.42637043 C306.540049,9.42637043 305.715971,9.65061769 305.189681,10.0991122 C304.663391,10.5481234 304.4,11.1583447 304.4,11.9292592 C304.4,12.7570107 304.686486,13.4085678 305.260442,13.8849641 C305.833415,14.3613603 306.633415,14.6000752 307.659951,14.6000752 C309.580344,14.6000752 310.893857,13.6751844 311.600491,11.823336 M311.050614,4.97811076 C311.684029,5.6296679 312,6.57315985 312,7.8070365 L312,14.9364461 L311.600491,14.9364461 L311.600491,12.6237024 C311.267322,13.3667152 310.763145,13.9474846 310.090909,14.3685941 C309.417199,14.7886702 308.60688,15 307.659951,15 C306.513022,15 305.616708,14.7230495 304.970516,14.1686317 C304.32285,13.6152473 304,12.8758514 304,11.9494105 C304,11.0808399 304.290418,10.3760628 304.869779,9.83611255 C305.450123,9.29719573 306.387224,9.02644558 307.679607,9.02644558 L311.600491,9.02644558 L311.600491,7.82822115 C311.600491,6.69200056 311.324324,5.83686411 310.771007,5.26177838 C310.217199,4.68669266 309.400491,4.39940815 308.320393,4.39940815 C307.573956,4.39940815 306.87715,4.53633332 306.229484,4.81018366 C305.583292,5.08300061 305.027027,5.45140683 304.560197,5.91436892 L304.280098,5.61985063 C304.772973,5.11555263 305.372973,4.71924468 306.080098,4.43144347 C306.786732,4.14415896 307.527273,4 308.300246,4 C309.500246,4 310.417199,4.32603692 311.050614,4.97811076" id="Fill-22" fill="#F7CAC9" mask="url(#mask-2)"></path>
                    <path d="M311.600491,11.823336 L311.600491,9.42637043 L307.659951,9.42637043 C306.540049,9.42637043 305.715971,9.65061769 305.189681,10.0991122 C304.663391,10.5481234 304.4,11.1583447 304.4,11.9292592 C304.4,12.7570107 304.686486,13.4085678 305.260442,13.8849641 C305.833415,14.3613603 306.633415,14.6000752 307.659951,14.6000752 C309.580344,14.6000752 310.893857,13.6751844 311.600491,11.823336 Z M311.050614,4.97811076 C311.684029,5.6296679 312,6.57315985 312,7.8070365 L312,14.9364461 L311.600491,14.9364461 L311.600491,12.6237024 C311.267322,13.3667152 310.763145,13.9474846 310.090909,14.3685941 C309.417199,14.7886702 308.60688,15 307.659951,15 C306.513022,15 305.616708,14.7230495 304.970516,14.1686317 C304.32285,13.6152473 304,12.8758514 304,11.9494105 C304,11.0808399 304.290418,10.3760628 304.869779,9.83611255 C305.450123,9.29719573 306.387224,9.02644558 307.679607,9.02644558 L311.600491,9.02644558 L311.600491,7.82822115 C311.600491,6.69200056 311.324324,5.83686411 310.771007,5.26177838 C310.217199,4.68669266 309.400491,4.39940815 308.320393,4.39940815 C307.573956,4.39940815 306.87715,4.53633332 306.229484,4.81018366 C305.583292,5.08300061 305.027027,5.45140683 304.560197,5.91436892 L304.280098,5.61985063 C304.772973,5.11555263 305.372973,4.71924468 306.080098,4.43144347 C306.786732,4.14415896 307.527273,4 308.300246,4 C309.500246,4 310.417199,4.32603692 311.050614,4.97811076 Z" id="Stroke-23" stroke="#F7CAC9" mask="url(#mask-2)"></path>
                    <path d="M9.92104665,14.8868405 C8.70957414,14.2858912 7.94208606,13.3146454 7.40017897,12.171975 C5.92159805,9.05214281 4.45737229,5.92556924 2.98801968,2.80140332 C2.71168295,2.21538144 2.4363716,1.62935957 2.14004019,1 C2.07595468,1.10545505 2.03288922,1.16323863 2.00315354,1.22728211 C1.34435448,2.62757103 0.682992004,4.02737841 0.0380354166,5.43392722 C-0.0178471494,5.55479122 -0.00964420392,5.73873564 0.0462383621,5.86200729 C0.528674092,6.91992846 1.03366792,7.96870056 1.52225586,9.02373254 C1.96470223,9.97908784 2.43688428,10.9248125 2.82139735,11.9008736 C3.33254339,13.1990782 2.7455201,14.3571576 1.38485653,14.8796175 C1.33307543,14.8998418 1.27770555,14.91188 1.22387372,14.927289 C1.24899524,14.9513655 1.27411676,14.9759235 1.29975097,15 L10,15 C9.96001064,14.9402903 9.94821891,14.8998418 9.92104665,14.8868405" id="Fill-24" fill="#F7CAC9" mask="url(#mask-2)"></path>
                    <path d="M130.548621,2 C129.184655,2.02750216 127.872414,2.55053437 126.928448,3.49248345 C126.477414,3.94234025 126.073448,4.51841234 125.811207,5.25458631 C125.811207,5.25458631 125.246379,6.48825476 124.032931,9.8906652 C124.032931,9.8906652 122.992241,12.5411861 122.350345,13.4065221 C122.323966,13.441882 122.295,13.4762597 122.263448,13.5076907 C122.193103,13.5798839 122.113966,13.6447104 122.029655,13.7016792 C120.940862,14.4309776 120.008276,14.5586662 120.008276,14.5586662 L120,14.9171766 L123.770172,14.9942809 L123.845172,14.9967364 C125.299655,15.0463385 126.723103,14.5291996 127.735862,13.5361751 C128.182759,13.0971227 128.585172,12.5357839 128.854655,11.8192544 C128.854655,11.8192544 129.44069,10.594917 130.712069,7.21116876 C130.712069,7.21116876 131.836034,4.4869813 132.488276,3.6805786 C132.505345,3.65946086 132.523966,3.63932535 132.543621,3.61968095 L132.563276,3.60052766 C132.586552,3.57646327 132.611897,3.55436331 132.638793,3.53373669 C133.862586,2.59227872 134.992241,2.43757906 134.992241,2.43757906 L135,2.0780865" id="Fill-25" fill="#F7CAC9" mask="url(#mask-2)"></path>
                </g>
            </g>
        </g>
    </g>
</svg>