<?xml version="1.0" encoding="UTF-8"?>
<svg width="295px" height="14px" viewBox="0 0 295 14" version="1.1" xmlns="http://www.w3.org/2000/svg" xmlns:xlink="http://www.w3.org/1999/xlink">
    <!-- Generator: Sketch 52.5 (67469) - http://www.bohemiancoding.com/sketch -->
    <title>Group 15</title>
    <desc>Created with Sketch.</desc>
    <defs>
        <polygon id="path-1" points="0 14 295 14 295 0 0 0"></polygon>
    </defs>
    <g id="Page-2" stroke="none" stroke-width="1" fill="none" fill-rule="evenodd">
        <g id="HOME" transform="translate(-215.000000, -554.000000)">
            <g id="Group-15" transform="translate(215.000000, 554.000000)">
                <path d="M36.6637707,5.07901824 C37.3448002,5.7435431 37.6846307,6.69733692 37.6846307,7.94216353 L37.6846307,13.4166667 L37.313326,13.4166667 L37.313326,7.94216353 C37.313326,6.80537182 37.0136365,5.93536017 36.4128891,5.33036474 C35.8125979,4.72669218 34.9618812,4.4237535 33.860283,4.4237535 C32.6099803,4.4237535 31.6228753,4.78578065 30.8985117,5.50983496 C30.1746043,6.23433022 29.8124225,7.18812404 29.8124225,8.37253929 L29.8124225,13.4166667 L29.4411178,13.4166667 L29.4411178,4.13668934 L29.8124225,4.13668934 L29.8124225,6.61399572 C30.1093751,5.82423856 30.6047522,5.20513245 31.2980977,4.75623642 C31.990987,4.30778135 32.8389668,4.08333333 33.8415809,4.08333333 C35.0421633,4.08333333 35.9827412,4.41537529 36.6637707,5.07901824" id="Fill-1" fill="#000000"></path>
                <path d="M66.7430375,10.7213154 L66.7430375,8.68752642 L62.9728167,8.68752642 C61.9013199,8.68752642 61.1133301,8.87779683 60.6093176,9.25833764 C60.105305,9.63931686 59.8532987,10.1570803 59.8532987,10.8111897 C59.8532987,11.5135242 60.1274026,12.0663606 60.6760804,12.4705756 C61.2242881,12.8747906 61.9901803,13.0773365 62.9728167,13.0773365 C64.8102058,13.0773365 66.0664759,12.2925807 66.7430375,10.7213154 M66.2164572,4.91324549 C66.8220245,5.46608186 67.1257485,6.26662048 67.1257485,7.31354612 L67.1257485,13.3627421 L66.7430375,13.3627421 L66.7430375,11.4004141 C66.4237982,12.0308493 65.9418832,12.5236233 65.2977627,12.8809283 C64.6536422,13.2373565 63.8783467,13.4166667 62.9728167,13.4166667 C61.875461,13.4166667 61.0174173,13.1816783 60.3986855,12.7112633 C59.7794835,12.241725 59.4710579,11.6143587 59.4710579,10.8282877 C59.4710579,10.0913187 59.7479827,9.49332597 60.3027726,9.0351864 C60.8580327,8.57792365 61.7546297,8.34819625 62.9916232,8.34819625 L66.7430375,8.34819625 L66.7430375,7.33152097 C66.7430375,6.36745502 66.4778667,5.6418847 65.9489356,5.15393317 C65.4190642,4.66598165 64.6376567,4.42222509 63.6042429,4.42222509 C62.8895982,4.42222509 62.22291,4.53840403 61.6046483,4.7707619 C60.9854463,5.00224294 60.452754,5.31483004 60.0065712,5.70764636 L59.7385795,5.45775205 C60.2101509,5.02986284 60.7842175,4.69360155 61.4607791,4.44940658 C62.1373407,4.20565002 62.8449329,4.08333333 63.5849663,4.08333333 C64.7335695,4.08333333 65.6104197,4.35997072 66.2164572,4.91324549" id="Fill-3" fill="#000000"></path>
                <path d="M150.59801,12.5236233 C151.261037,12.155358 151.780208,11.6406634 152.155985,10.9799779 C152.530839,10.3206077 152.718958,9.5735552 152.718958,8.74057416 C152.718958,7.90846995 152.530839,7.16141748 152.155985,6.50160881 C151.780208,5.84092333 151.261037,5.32973601 150.59801,4.96629323 C149.934983,4.60372728 149.197263,4.42222509 148.383464,4.42222509 C147.570588,4.42222509 146.831945,4.60372728 146.168918,4.96629323 C145.50543,5.32973601 144.987181,5.84092333 144.611866,6.50160881 C144.23655,7.16141748 144.04797,7.90846995 144.04797,8.74057416 C144.04797,9.5735552 144.23655,10.3206077 144.611866,10.9799779 C144.987181,11.6406634 145.50543,12.155358 146.168918,12.5236233 C146.831945,12.8932038 147.570588,13.0773365 148.383464,13.0773365 C149.197263,13.0773365 149.934983,12.8932038 150.59801,12.5236233 M145.971578,12.8182356 C145.2523,12.4201583 144.689326,11.8638146 144.282658,11.1500814 C143.875989,10.4359098 143.672655,9.63317911 143.672655,8.74057416 C143.672655,7.84840763 143.875989,7.04830742 144.282658,6.34027354 C144.689326,5.63267807 145.2523,5.0798417 145.971578,4.68088763 C146.690394,4.28281037 147.495432,4.08333333 148.383464,4.08333333 C149.271957,4.08333333 150.07515,4.28281037 150.795351,4.68088763 C151.514167,5.0798417 152.077141,5.63267807 152.483809,6.34027354 C152.890939,7.04830742 153.093812,7.84840763 153.093812,8.74057416 C153.093812,9.63317911 152.890939,10.4359098 152.483809,11.1500814 C152.077141,11.8638146 151.514167,12.4201583 150.795351,12.8182356 C150.07515,13.217628 149.271957,13.4166667 148.383464,13.4166667 C147.495432,13.4166667 146.690394,13.217628 145.971578,12.8182356" id="Fill-5" fill="#000000"></path>
                <mask id="mask-2" fill="white">
                    <use xlink:href="#path-1"></use>
                </mask>
                <g id="Clip-8"></g>
                <polygon id="Fill-7" fill="#000000" mask="url(#mask-2)" points="174.88024 13.4166667 175.358952 13.4166667 175.358952 0 174.88024 0"></polygon>
                <path d="M198.318071,13.0593616 C197.605008,12.8217428 197.055176,12.5183624 196.666667,12.1496587 L196.899582,11.8638146 C197.288091,12.209721 197.809763,12.4973186 198.463643,12.7296765 C199.117523,12.9611576 199.826768,13.0773365 200.590901,13.0773365 C201.730179,13.0773365 202.572109,12.8967111 203.116214,12.5332684 C203.660795,12.1707024 203.932848,11.6674065 203.932848,11.0251343 C203.932848,10.5612953 203.786321,10.1956605 203.495655,9.92691453 C203.203557,9.65992218 202.847502,9.46351402 202.426537,9.33900528 C202.00605,9.21405812 201.426626,9.08604209 200.68779,8.955834 C199.898361,8.82431068 199.260231,8.68489596 198.774356,8.53583619 C198.288957,8.38721484 197.880879,8.14915762 197.551075,7.82210296 C197.220317,7.4950483 197.055176,7.04041602 197.055176,6.45689088 C197.055176,5.79050605 197.356343,5.22890147 197.958199,4.7707619 C198.561009,4.31262232 199.444463,4.08333333 200.609992,4.08333333 C201.232371,4.08333333 201.847114,4.16970031 202.455652,4.34243428 C203.06419,4.51516824 203.557225,4.74401882 203.932848,5.02986284 L203.699455,5.31483004 C203.310468,5.02986284 202.844161,4.80978048 202.300534,4.65458296 C201.75643,4.50026226 201.193234,4.42222509 200.609992,4.42222509 C199.560921,4.42222509 198.774356,4.60986503 198.24982,4.9847065 C197.725284,5.35910956 197.463255,5.85012996 197.463255,6.45689088 C197.463255,6.94484241 197.61169,7.3284521 197.909993,7.60771995 C198.207819,7.88742621 198.577237,8.0926026 199.017293,8.22368751 C199.45735,8.35477242 200.039637,8.47928116 200.765587,8.59765215 C201.55597,8.74057416 202.184077,8.88349617 202.649907,9.02685659 C203.116214,9.1697786 203.511883,9.39862918 203.835482,9.71296992 C204.158603,10.0286259 204.321357,10.4657217 204.321357,11.0251343 C204.321357,11.7515814 204.003008,12.3307224 203.369174,12.7651878 C202.733909,13.1992148 201.807977,13.4166667 200.590901,13.4166667 C199.787631,13.4166667 199.029703,13.2974189 198.318071,13.0593616" id="Fill-9" fill="#000000" mask="url(#mask-2)"></path>
                <path d="M231.855495,12.5236233 C232.518522,12.155358 233.037693,11.6406634 233.41347,10.9799779 C233.788324,10.3206077 233.976443,9.5735552 233.976443,8.74057416 C233.976443,7.90846995 233.788324,7.16141748 233.41347,6.50160881 C233.037693,5.84092333 232.518522,5.32973601 231.855495,4.96629323 C231.192468,4.60372728 230.453825,4.42222509 229.640949,4.42222509 C228.828073,4.42222509 228.08943,4.60372728 227.426403,4.96629323 C226.762915,5.32973601 226.243744,5.84092333 225.868429,6.50160881 C225.493113,7.16141748 225.305455,7.90846995 225.305455,8.74057416 C225.305455,9.5735552 225.493113,10.3206077 225.868429,10.9799779 C226.243744,11.6406634 226.762915,12.155358 227.426403,12.5236233 C228.08943,12.8932038 228.828073,13.0773365 229.640949,13.0773365 C230.453825,13.0773365 231.192468,12.8932038 231.855495,12.5236233 M227.229063,12.8182356 C226.509785,12.4201583 225.947272,11.8638146 225.540143,11.1500814 C225.133474,10.4359098 224.93014,9.63317911 224.93014,8.74057416 C224.93014,7.84840763 225.133474,7.04830742 225.540143,6.34027354 C225.947272,5.63267807 226.509785,5.0798417 227.229063,4.68088763 C227.948802,4.28281037 228.752917,4.08333333 229.640949,4.08333333 C230.528981,4.08333333 231.332635,4.28281037 232.052836,4.68088763 C232.771652,5.0798417 233.334626,5.63267807 233.741294,6.34027354 C234.148424,7.04830742 234.351297,7.84840763 234.351297,8.74057416 C234.351297,9.63317911 234.148424,10.4359098 233.741294,11.1500814 C233.334626,11.8638146 232.771652,12.4201583 232.052836,12.8182356 C231.332635,13.217628 230.528981,13.4166667 229.640949,13.4166667 C228.752917,13.4166667 227.948802,13.217628 227.229063,12.8182356" id="Fill-10" fill="#000000" mask="url(#mask-2)"></path>
                <path d="M263.948744,5.07901824 C264.629317,5.7435431 264.97006,6.69733692 264.97006,7.94216353 L264.97006,13.4166667 L264.599211,13.4166667 L264.599211,7.94216353 C264.599211,6.80537182 264.29861,5.93536017 263.698318,5.33036474 C263.097571,4.72669218 262.24731,4.4237535 261.145256,4.4237535 C259.894953,4.4237535 258.908304,4.78578065 258.183485,5.50983496 C257.459121,6.23433022 257.097396,7.18812404 257.097396,8.37253929 L257.097396,13.4166667 L256.726547,13.4166667 L256.726547,4.13668934 L257.097396,4.13668934 L257.097396,6.61399572 C257.394804,5.82423856 257.889269,5.20513245 258.582615,4.75623642 C259.27596,4.30778135 260.12394,4.08333333 261.126554,4.08333333 C262.327136,4.08333333 263.267714,4.41537529 263.948744,5.07901824" id="Fill-11" fill="#000000" mask="url(#mask-2)"></path>
                <path d="M294.617736,10.7213154 L294.617736,8.68752642 L290.847283,8.68752642 C289.775721,8.68752642 288.987212,8.87779683 288.483639,9.25833764 C287.980066,9.63931686 287.728044,10.1570803 287.728044,10.8111897 C287.728044,11.5135242 288.002165,12.0663606 288.551346,12.4705756 C289.099588,12.8747906 289.865057,13.0773365 290.847283,13.0773365 C292.684785,13.0773365 293.941603,12.2925807 294.617736,10.7213154 M294.091593,4.91324549 C294.697668,5.46608186 295,6.26662048 295,7.31354612 L295,13.3627421 L294.617736,13.3627421 L294.617736,11.4004141 C294.298947,12.0308493 293.816532,12.5236233 293.173312,12.8809283 C292.528682,13.2373565 291.753339,13.4166667 290.847283,13.4166667 C289.74986,13.4166667 288.892234,13.1816783 288.273934,12.7112633 C287.654224,12.241725 287.345309,11.6143587 287.345309,10.8282877 C287.345309,10.0913187 287.623192,9.49332597 288.177545,9.0351864 C288.73284,8.57792365 289.629492,8.34819625 290.866091,8.34819625 L294.617736,8.34819625 L294.617736,7.33152097 C294.617736,6.36745502 294.353489,5.6418847 293.824055,5.15393317 C293.294151,4.66598165 292.512696,4.42222509 291.479218,4.42222509 C290.765,4.42222509 290.098271,4.53840403 289.478561,4.7707619 C288.860261,5.00224294 288.328006,5.31483004 287.881326,5.70764636 L287.613318,5.45775205 C288.084918,5.02986284 288.65902,4.69360155 289.335623,4.44940658 C290.011756,4.20565002 290.720332,4.08333333 291.459941,4.08333333 C292.608144,4.08333333 293.485519,4.35997072 294.091593,4.91324549" id="Fill-12" fill="#000000" mask="url(#mask-2)"></path>
                <path d="M8.76260108,13.8915555 C7.69258794,13.3156457 7.01471673,12.3848685 6.53608622,11.2898093 C5.23015397,8.29997019 3.93690067,5.30367052 2.63911918,2.30967818 C2.39504932,1.74807388 2.15188509,1.18646958 1.89015526,0.583333333 C1.83355279,0.684394419 1.79551593,0.739770356 1.76925238,0.801145353 C1.18737896,2.14355037 0.60324144,3.48457098 0.0335941554,4.83251359 C-0.0157632008,4.94834159 -0.0085180843,5.12462166 0.0408392719,5.24275699 C0.466942686,6.25659811 0.912970171,7.26167137 1.34450742,8.27274369 C1.73529089,9.18829252 2.15233791,10.094612 2.49195275,11.0300039 C2.94341407,12.2741166 2.42493542,13.3839427 1.22315172,13.8846335 C1.17741692,13.904015 1.12851239,13.9155517 1.08096631,13.9303186 C1.10315448,13.9533919 1.12534265,13.9769267 1.14798364,14 L8.83233533,14 C8.79701539,13.9427782 8.78660053,13.904015 8.76260108,13.8915555" id="Fill-13" fill="#2B272B" mask="url(#mask-2)"></path>
                <path d="M121.989008,1.16666667 C120.757536,1.19258217 119.572765,1.68543944 118.720495,2.5730453 C118.313274,2.99694883 117.948549,3.53978599 117.711782,4.23348838 C117.711782,4.23348838 117.201821,5.39598365 116.106246,8.60210118 C116.106246,8.60210118 115.166648,11.0997075 114.587104,11.9151201 C114.563288,11.9484401 114.537136,11.9808344 114.508649,12.0104522 C114.445137,12.0784803 114.373687,12.1395669 114.297566,12.193249 C113.314537,12.8804725 112.472542,13.0007945 112.472542,13.0007945 L112.46507,13.3386215 L115.869011,13.4108147 L115.936726,13.4135914 C117.249922,13.4603318 118.535097,12.9730279 119.449478,12.0372932 C119.852963,11.6235708 120.216287,11.0946169 120.459592,10.4194256 C120.459592,10.4194256 120.9887,9.2652603 122.136579,6.07719107 C122.136579,6.07719107 123.151363,3.51016828 123.740246,2.75028881 C123.755657,2.7303894 123.772469,2.71141556 123.790215,2.69290448 L123.807961,2.67485619 C123.828976,2.65218013 123.851859,2.63135517 123.876143,2.61191855 C124.981058,1.72477546 126.000979,1.57900078 126.000979,1.57900078 L126.007984,1.24024817" id="Fill-14" fill="#2B272B" mask="url(#mask-2)"></path>
            </g>
        </g>
    </g>
</svg>